<?xml version="1.0" encoding="UTF-8" standalone="no"?>
<!-- Created with Inkscape (http://www.inkscape.org/) -->

<svg
   xmlns:dc="http://purl.org/dc/elements/1.1/"
   xmlns:cc="http://creativecommons.org/ns#"
   xmlns:rdf="http://www.w3.org/1999/02/22-rdf-syntax-ns#"
   xmlns:svg="http://www.w3.org/2000/svg"
   xmlns="http://www.w3.org/2000/svg"
   xmlns:xlink="http://www.w3.org/1999/xlink"
   xmlns:sodipodi="http://sodipodi.sourceforge.net/DTD/sodipodi-0.dtd"
   xmlns:inkscape="http://www.inkscape.org/namespaces/inkscape"
   width="2560"
   height="1440"
   viewBox="0 0 2560 1440"
   version="1.1"
   id="svg8"
   sodipodi:docname="xfce-4.18_Jump-Brown.svg"
   inkscape:version="0.92.5 (2060ec1f9f, 2020-04-08)"
   inkscape:export-filename="/home/knome/WIP/Xfce Wallpaper/Exports/xfce-4.14-final.png"
   inkscape:export-xdpi="144"
   inkscape:export-ydpi="144">
  <defs
     id="defs2">
    <linearGradient
       inkscape:collect="always"
       id="linearGradient991">
      <stop
         style="stop-color:#ff6600;stop-opacity:1"
         offset="0"
         id="stop987" />
      <stop
         style="stop-color:#784421;stop-opacity:1"
         offset="1"
         id="stop989" />
    </linearGradient>
    <linearGradient
       id="linearGradient2661"
       inkscape:collect="always">
      <stop
         id="stop2657"
         offset="0"
         style="stop-color:#fcfdff;stop-opacity:0.82745099" />
      <stop
         id="stop2659"
         offset="1"
         style="stop-color:#ffffff;stop-opacity:0" />
    </linearGradient>
    <linearGradient
       inkscape:collect="always"
       id="linearGradient2649">
      <stop
         style="stop-color:#98eeff;stop-opacity:0.82822084"
         offset="0"
         id="stop2645" />
      <stop
         style="stop-color:#98eeff;stop-opacity:0;"
         offset="1"
         id="stop2647" />
    </linearGradient>
    <inkscape:path-effect
       end_linecap_type="zerowidth"
       miter_limit="4"
       linejoin_type="extrp_arc"
       start_linecap_type="zerowidth"
       interpolator_beta="0.2"
       interpolator_type="CubicBezierFit"
       sort_points="true"
       offset_points="0.50613159,2.5992589"
       is_visible="true"
       id="path-effect836"
       effect="powerstroke" />
    <inkscape:path-effect
       end_linecap_type="zerowidth"
       miter_limit="4"
       linejoin_type="extrp_arc"
       start_linecap_type="zerowidth"
       interpolator_beta="0.2"
       interpolator_type="CubicBezierFit"
       sort_points="true"
       offset_points="0.50613159,2.5992589"
       is_visible="true"
       id="path-effect828"
       effect="powerstroke" />
    <inkscape:path-effect
       effect="powerstroke"
       id="path-effect957"
       is_visible="true"
       offset_points="0.2,2 | 2.2053736,0.43805794 | 0.74316954,1.2933704 | 2.8,2"
       sort_points="true"
       interpolator_type="CubicBezierFit"
       interpolator_beta="0.2"
       start_linecap_type="butt"
       linejoin_type="extrp_arc"
       miter_limit="4"
       end_linecap_type="butt" />
    <inkscape:path-effect
       effect="powerstroke"
       id="path-effect929"
       is_visible="true"
       offset_points="0.50613159,2.5992589"
       sort_points="true"
       interpolator_type="CubicBezierFit"
       interpolator_beta="0.2"
       start_linecap_type="zerowidth"
       linejoin_type="extrp_arc"
       miter_limit="4"
       end_linecap_type="zerowidth" />
    <linearGradient
       inkscape:collect="always"
       xlink:href="#linearGradient2649"
       id="linearGradient2651"
       x1="581.84784"
       y1="970.12173"
       x2="1963.7365"
       y2="970.12173"
       gradientUnits="userSpaceOnUse"
       gradientTransform="matrix(0.64766079,0,0,0.73511102,-376.84002,-29.78685)" />
    <linearGradient
       inkscape:collect="always"
       xlink:href="#linearGradient2661"
       id="linearGradient2655"
       gradientUnits="userSpaceOnUse"
       gradientTransform="matrix(1.0336257,0,0,1.1063982,-3161.4127,-694.21912)"
       x1="581.84784"
       y1="970.12173"
       x2="1963.7365"
       y2="970.12173" />
    <radialGradient
       inkscape:collect="always"
       xlink:href="#linearGradient991"
       id="radialGradient1195"
       cx="1059.4376"
       cy="1360.5375"
       fx="1059.4376"
       fy="1360.5375"
       r="1400"
       gradientTransform="matrix(0.1550276,-0.15866518,0.63847232,0.6238346,26.669424,326.58428)"
       gradientUnits="userSpaceOnUse" />
  </defs>
  <sodipodi:namedview
     id="base"
     pagecolor="#ffffff"
     bordercolor="#666666"
     borderopacity="1.0"
     inkscape:pageopacity="0.0"
     inkscape:pageshadow="2"
     inkscape:zoom="0.5171875"
     inkscape:cx="1150.0881"
     inkscape:cy="720"
     inkscape:document-units="px"
     inkscape:current-layer="layer2"
     showgrid="false"
     units="px"
     inkscape:window-width="1920"
     inkscape:window-height="1017"
     inkscape:window-x="0"
     inkscape:window-y="33"
     inkscape:window-maximized="1"
     inkscape:snap-page="true"
     showguides="false"
     inkscape:lockguides="true"
     inkscape:snap-global="true"
     inkscape:snap-center="true" />
  <metadata
     id="metadata5">
    <rdf:RDF>
      <cc:Work
         rdf:about="">
        <dc:format>image/svg+xml</dc:format>
        <dc:type
           rdf:resource="http://purl.org/dc/dcmitype/StillImage" />
        <dc:title></dc:title>
      </cc:Work>
    </rdf:RDF>
  </metadata>
  <g
     inkscape:label="BG"
     inkscape:groupmode="layer"
     id="layer1"
     transform="translate(0,84.000016)">
    <rect
       y="-84.000015"
       x="0"
       height="1440"
       width="2560"
       id="rect838"
       style="opacity:1;fill:url(#radialGradient1195);fill-opacity:1;fill-rule:nonzero;stroke:none;stroke-width:3;stroke-linecap:round;stroke-linejoin:round;stroke-miterlimit:4;stroke-dasharray:none;stroke-opacity:1" />
  </g>
  <g
     inkscape:groupmode="layer"
     id="layer2"
     inkscape:label="Elements">
    <path
       inkscape:connector-curvature="0"
       id="ellipse4274-3"
       style="opacity:0.5;fill:#e9c6af;fill-opacity:1;fill-rule:evenodd;stroke:none;stroke-width:0.53947319pt;stroke-linecap:butt;stroke-linejoin:miter;stroke-opacity:1"
       d="m 1891.4831,990.92325 a 4.6886412,5.328206 0 0 1 -4.6886,5.3282 4.6886412,5.328206 0 0 1 -4.6887,-5.3282 4.6886412,5.328206 0 0 1 4.6887,-5.3281 4.6886412,5.328206 0 0 1 4.6886,5.3281 z m 0.01,0.011 a 4.6886412,5.3282061 0 0 1 -4.6887,5.3281 4.6886412,5.3282061 0 0 1 -4.6885,-5.3281 4.6886412,5.3282061 0 0 1 4.6885,-5.3283 4.6886412,5.3282061 0 0 1 4.6887,5.3283 z m -15.2128,-2.0914 c -4.6616,3.2895 2.5588,21.90425 14.4343,11.0353 -9.3301,0.27365 -12.4423,-2.4532 -14.4343,-11.0353 z m 50.1745,-26.9963 c -0.7419,-0.8598 -4.6785,19.0883 -2.8582,19.9715 1.5627,1.167 4.2848,-18.9338 2.8582,-19.9715 z m -34.9617,29.0877 a 4.6886412,5.3282061 0 0 1 -4.6887,5.3281 4.6886412,5.3282061 0 0 1 -4.6885,-5.3281 4.6886412,5.3282061 0 0 1 4.6885,-5.3283 4.6886412,5.3282061 0 0 1 4.6887,5.3283 z m 48.4741,-26.4941 c -1.4989,-1.2375 -13.2532,17.2732 -10.654,19.1941 1.5628,1.167 11.3235,-18.5342 10.654,-19.1941 z m -48.5934,66.39775 c -1.5813,-0.9537 10.7483,-15.3036 13.773,-13.747 4.4161,4.3791 -13.9799,14.0879 -13.773,13.747 z m -8.5747,-9.8565 c -0.2842,-0.9907 17.6692,-11.8295 20.2685,-9.3376 4.6784,1.6926 -20.1036,10.5953 -20.2685,9.3376 z m -232.6832,-80.97995 c 0.9051,-0.1512 23.4731,11.7387 38.6425,15.8476 27.0497,6.8995 51.7409,27.6654 63.6751,39.5938 0.885,1.021 10.2503,-6.9986 20.0514,-6.4209 13.3878,0.8093 54.8128,12.43555 60.3475,4.5185 3.3563,-4.6478 3.1157,-10.3502 7.303,-12.6858 2.2542,-0.6297 -8.3796,-20.0421 2.9221,-26.2616 8.0583,-4.0198 14.8868,18.4855 16.9559,21.0076 0.927,1.1283 5.8443,1.4038 5.2623,-1.167 -0.6309,-2.7924 -8.5849,-24.3877 1.1693,-28.0112 15.8422,-6.2615 13.0344,27.6317 13.4465,28.5955 0.8765,2.052 55.1745,3.6336 58.4668,28.01115 1.9043,13.4163 -43.501,30.7567 -47.9422,33.8463 -4.4396,3.0896 -4.0695,8.0313 -2.3385,11.0889 1.9902,3.3164 15.2181,14.5094 13.4483,19.8407 -1.2162,3.0795 -25.9041,-8.2076 -27.4804,-5.8351 -3.5951,4.5321 17.972,15.8763 10.5245,23.926 -2.9524,1.9277 -36.9215,-14.1954 -36.8357,-14.0056 -0.9117,0.3459 -47.9994,8.5854 -84.1926,-2.3357 -1.275,-0.3593 -23.2292,21.1672 -25.7257,20.4267 -3.4133,-1.2494 5.0319,-18.7223 4.0931,-22.1763 -1.5343,-1.9244 -15.563,7.813 -16.3706,2.9183 -0.9656,-6.4327 12.3112,-13.8276 11.6937,-18.0909 -3.4234,-24.2198 1.5293,-38.3632 9.9392,-50.1859 2.8043,-4.35215 -32.9598,-31.30895 -58.8521,-41.94795 -25.8907,-10.639 -39.7428,-19.6559 -38.2034,-20.4971 z"
       inkscape:transform-center-x="22.168774"
       inkscape:transform-center-y="0.00030899266" />
  </g>
</svg>
