<?xml version="1.0" encoding="UTF-8" standalone="no"?>
<!-- Created with Inkscape (http://www.inkscape.org/) -->

<svg
   xmlns:dc="http://purl.org/dc/elements/1.1/"
   xmlns:cc="http://creativecommons.org/ns#"
   xmlns:rdf="http://www.w3.org/1999/02/22-rdf-syntax-ns#"
   xmlns:svg="http://www.w3.org/2000/svg"
   xmlns="http://www.w3.org/2000/svg"
   xmlns:xlink="http://www.w3.org/1999/xlink"
   xmlns:sodipodi="http://sodipodi.sourceforge.net/DTD/sodipodi-0.dtd"
   xmlns:inkscape="http://www.inkscape.org/namespaces/inkscape"
   width="2560"
   height="1440"
   viewBox="0 0 2560 1440"
   version="1.1"
   id="svg8"
   sodipodi:docname="xfce-4.18 Classic Blue.svg"
   inkscape:version="0.92.5 (2060ec1f9f, 2020-04-08)"
   inkscape:export-filename="/home/knome/WIP/Xfce Wallpaper/Exports/xfce-4.14-final.png"
   inkscape:export-xdpi="144"
   inkscape:export-ydpi="144">
  <defs
     id="defs2">
    <linearGradient
       id="linearGradient1521"
       inkscape:collect="always">
      <stop
         id="stop1517"
         offset="0"
         style="stop-color:#003250;stop-opacity:1" />
      <stop
         id="stop1519"
         offset="1"
         style="stop-color:#0046f0;stop-opacity:1" />
    </linearGradient>
    <linearGradient
       id="linearGradient2661"
       inkscape:collect="always">
      <stop
         id="stop2657"
         offset="0"
         style="stop-color:#fcfdff;stop-opacity:0.82745099" />
      <stop
         id="stop2659"
         offset="1"
         style="stop-color:#ffffff;stop-opacity:0" />
    </linearGradient>
    <linearGradient
       inkscape:collect="always"
       id="linearGradient2649">
      <stop
         style="stop-color:#98eeff;stop-opacity:0.82822084"
         offset="0"
         id="stop2645" />
      <stop
         style="stop-color:#98eeff;stop-opacity:0;"
         offset="1"
         id="stop2647" />
    </linearGradient>
    <inkscape:path-effect
       end_linecap_type="zerowidth"
       miter_limit="4"
       linejoin_type="extrp_arc"
       start_linecap_type="zerowidth"
       interpolator_beta="0.2"
       interpolator_type="CubicBezierFit"
       sort_points="true"
       offset_points="0.50613159,2.5992589"
       is_visible="true"
       id="path-effect836"
       effect="powerstroke" />
    <inkscape:path-effect
       end_linecap_type="zerowidth"
       miter_limit="4"
       linejoin_type="extrp_arc"
       start_linecap_type="zerowidth"
       interpolator_beta="0.2"
       interpolator_type="CubicBezierFit"
       sort_points="true"
       offset_points="0.50613159,2.5992589"
       is_visible="true"
       id="path-effect828"
       effect="powerstroke" />
    <inkscape:path-effect
       effect="powerstroke"
       id="path-effect957"
       is_visible="true"
       offset_points="0.2,2 | 2.2053736,0.43805794 | 0.74316954,1.2933704 | 2.8,2"
       sort_points="true"
       interpolator_type="CubicBezierFit"
       interpolator_beta="0.2"
       start_linecap_type="butt"
       linejoin_type="extrp_arc"
       miter_limit="4"
       end_linecap_type="butt" />
    <inkscape:path-effect
       effect="powerstroke"
       id="path-effect929"
       is_visible="true"
       offset_points="0.50613159,2.5992589"
       sort_points="true"
       interpolator_type="CubicBezierFit"
       interpolator_beta="0.2"
       start_linecap_type="zerowidth"
       linejoin_type="extrp_arc"
       miter_limit="4"
       end_linecap_type="zerowidth" />
    <linearGradient
       inkscape:collect="always"
       xlink:href="#linearGradient2649"
       id="linearGradient2651"
       x1="581.84784"
       y1="970.12173"
       x2="1963.7365"
       y2="970.12173"
       gradientUnits="userSpaceOnUse"
       gradientTransform="matrix(0.64766079,0,0,0.73511102,-376.84002,-29.78685)" />
    <linearGradient
       inkscape:collect="always"
       xlink:href="#linearGradient2661"
       id="linearGradient2655"
       gradientUnits="userSpaceOnUse"
       gradientTransform="matrix(1.0336257,0,0,1.1063982,-3161.4127,-694.21912)"
       x1="581.84784"
       y1="970.12173"
       x2="1963.7365"
       y2="970.12173" />
    <linearGradient
       inkscape:collect="always"
       xlink:href="#linearGradient917"
       id="linearGradient997"
       gradientUnits="userSpaceOnUse"
       x1="895.22662"
       y1="1412.0725"
       x2="1978.006"
       y2="348.62839" />
    <linearGradient
       gradientTransform="translate(0,84.000015)"
       inkscape:collect="always"
       xlink:href="#linearGradient917"
       id="linearGradient997-7"
       gradientUnits="userSpaceOnUse"
       x1="924.22961"
       y1="1356"
       x2="1978.006"
       y2="348.62839" />
    <linearGradient
       id="linearGradient917"
       inkscape:collect="always">
      <stop
         id="stop913"
         offset="0"
         style="stop-color:#003250;stop-opacity:1" />
      <stop
         id="stop915"
         offset="1"
         style="stop-color:#0046f0;stop-opacity:1" />
    </linearGradient>
    <linearGradient
       inkscape:collect="always"
       xlink:href="#linearGradient1521"
       id="linearGradient1523"
       gradientUnits="userSpaceOnUse"
       gradientTransform="translate(0,84.000015)"
       x1="126.99696"
       y1="595.86694"
       x2="362.06516"
       y2="394.75919" />
  </defs>
  <sodipodi:namedview
     id="base"
     pagecolor="#ffffff"
     bordercolor="#666666"
     borderopacity="1.0"
     inkscape:pageopacity="0.0"
     inkscape:pageshadow="2"
     inkscape:zoom="0.49414062"
     inkscape:cx="1182.305"
     inkscape:cy="720"
     inkscape:document-units="px"
     inkscape:current-layer="layer1"
     showgrid="false"
     units="px"
     inkscape:window-width="1920"
     inkscape:window-height="1017"
     inkscape:window-x="0"
     inkscape:window-y="33"
     inkscape:window-maximized="1"
     inkscape:snap-page="true"
     showguides="false"
     inkscape:lockguides="true"
     inkscape:snap-global="true"
     inkscape:snap-center="true" />
  <metadata
     id="metadata5">
    <rdf:RDF>
      <cc:Work
         rdf:about="">
        <dc:format>image/svg+xml</dc:format>
        <dc:type
           rdf:resource="http://purl.org/dc/dcmitype/StillImage" />
        <dc:title />
      </cc:Work>
    </rdf:RDF>
  </metadata>
  <g
     inkscape:label="BG"
     inkscape:groupmode="layer"
     id="layer1"
     transform="translate(0,84.000016)">
    <rect
       y="-84.000015"
       x="0"
       height="1440"
       width="2560"
       id="rect838"
       style="opacity:1;vector-effect:none;fill:url(#linearGradient997);fill-opacity:1;fill-rule:nonzero;stroke:none;stroke-width:3;stroke-linecap:round;stroke-linejoin:round;stroke-miterlimit:4;stroke-dasharray:none;stroke-dashoffset:0;stroke-opacity:1" />
    <g
       id="g4621"
       transform="matrix(0.66477793,0,0,0.66243558,245.22027,779.34318)"
       style="opacity:1;vector-effect:none;fill:url(#linearGradient1523);fill-opacity:1;stroke:none;stroke-width:3;stroke-linecap:round;stroke-linejoin:round;stroke-miterlimit:4;stroke-dasharray:none;stroke-dashoffset:0;stroke-opacity:1">
      <path
         inkscape:connector-curvature="0"
         style="vector-effect:none;fill:url(#linearGradient1523);fill-opacity:1;stroke:none;stroke-width:3;stroke-linecap:round;stroke-linejoin:round;stroke-miterlimit:4;stroke-dasharray:none;stroke-dashoffset:0;stroke-opacity:1"
         id="path4623"
         d="m 58.345585,417.63579 56.432265,69.38376 56.45069,-66.66449 40.49963,40.30749 -61.78078,65.91662 65.45855,68.01565 -42.74601,42.50269 L 108.5111,564.35998 48.268494,638.64971 7.1899623,597.32826 74.708237,531.54185 13.029005,462.45552 Z" />
      <path
         inkscape:connector-curvature="0"
         style="vector-effect:none;fill:url(#linearGradient1523);fill-opacity:1;stroke:none;stroke-width:3;stroke-linecap:round;stroke-linejoin:round;stroke-miterlimit:4;stroke-dasharray:none;stroke-dashoffset:0;stroke-opacity:1"
         id="path4625"
         d="m 245.32235,432.76045 c 0,0 117.20479,-1.21951 117.20479,-0.74369 0,0.47308 -0.46199,46.74243 -0.46199,46.74243 l -56.15161,2.88037 -0.17056,36.17 53.92068,0.57225 0.17335,44.40991 -53.06171,1.1226 -0.0416,75.28312 -62.11058,-0.88382 c 0,0 -0.24879,-205.55317 0.69921,-205.55317 z" />
      <path
         inkscape:connector-curvature="0"
         style="vector-effect:none;fill:url(#linearGradient1523);fill-opacity:1;stroke:none;stroke-width:3;stroke-linecap:round;stroke-linejoin:round;stroke-miterlimit:4;stroke-dasharray:none;stroke-dashoffset:0;stroke-opacity:1"
         id="path4627"
         d="m 542.33906,431.37943 c 3.7919,18.02364 7.581,36.04727 11.373,54.07091 -36.2734,12.22845 -88.71272,15.00605 -91.24882,68.09506 6.6716,52.01081 70.35438,34.37103 98.68398,36.76942 0.4726,17.23426 0.43804,33.70097 0.91074,50.93523 C 435.29236,657.93973 400.36214,596.11929 398.22454,573.7307 385.72484,472.89955 486.80926,443.52538 542.33906,431.37943 Z" />
      <path
         inkscape:connector-curvature="0"
         style="vector-effect:none;fill:url(#linearGradient1523);fill-opacity:1;stroke:none;stroke-width:3;stroke-linecap:round;stroke-linejoin:round;stroke-miterlimit:4;stroke-dasharray:none;stroke-dashoffset:0;stroke-opacity:1"
         id="path4629"
         d="m 597.26819,428.94061 116.39026,-0.42207 -1.34547,46.26995 -56.4993,0.0539 0.79926,34.59126 48.82809,-0.68549 -0.56651,45.70916 -48.37488,0.80727 0.4754,32.7275 57.10463,0.0964 0.11331,50.46219 -118.30011,-3.34717 z" />
    </g>
  </g>
  <g
     inkscape:groupmode="layer"
     id="layer2"
     inkscape:label="Elements">
    <path
       inkscape:connector-curvature="0"
       id="ellipse4274-3"
       style="opacity:0.575;fill:#000046;fill-opacity:1;fill-rule:evenodd;stroke:none;stroke-width:0.53947319pt;stroke-linecap:butt;stroke-linejoin:miter;stroke-opacity:1"
       d="m 2241.4831,1190.9232 a 4.6886412,5.328206 0 0 1 -4.6886,5.3282 4.6886412,5.328206 0 0 1 -4.6887,-5.3282 4.6886412,5.328206 0 0 1 4.6887,-5.3281 4.6886412,5.328206 0 0 1 4.6886,5.3281 z m 0.01,0.011 a 4.6886412,5.3282061 0 0 1 -4.6887,5.3281 4.6886412,5.3282061 0 0 1 -4.6885,-5.3281 4.6886412,5.3282061 0 0 1 4.6885,-5.3283 4.6886412,5.3282061 0 0 1 4.6887,5.3283 z m -15.2128,-2.0914 c -4.6616,3.2895 2.5588,21.9043 14.4343,11.0353 -9.3301,0.2737 -12.4423,-2.4532 -14.4343,-11.0353 z m 50.1745,-26.9963 c -0.7419,-0.8598 -4.6785,19.0883 -2.8582,19.9715 1.5627,1.167 4.2848,-18.9338 2.8582,-19.9715 z m -34.9617,29.0877 a 4.6886412,5.3282061 0 0 1 -4.6887,5.3281 4.6886412,5.3282061 0 0 1 -4.6885,-5.3281 4.6886412,5.3282061 0 0 1 4.6885,-5.3283 4.6886412,5.3282061 0 0 1 4.6887,5.3283 z m 48.4741,-26.4941 c -1.4989,-1.2375 -13.2532,17.2732 -10.654,19.1941 1.5628,1.167 11.3235,-18.5342 10.654,-19.1941 z m -48.5934,66.3978 c -1.5813,-0.9537 10.7483,-15.3036 13.773,-13.747 4.4161,4.3791 -13.9799,14.0879 -13.773,13.747 z m -8.5747,-9.8565 c -0.2842,-0.9907 17.6692,-11.8295 20.2685,-9.3376 4.6784,1.6926 -20.1036,10.5953 -20.2685,9.3376 z m -232.6832,-80.98 c 0.9051,-0.1512 23.4731,11.7387 38.6425,15.8476 27.0497,6.8995 51.7409,27.6654 63.6751,39.5938 0.885,1.021 10.2503,-6.9986 20.0514,-6.4209 13.3878,0.8093 54.8128,12.4356 60.3475,4.5185 3.3563,-4.6478 3.1157,-10.3502 7.303,-12.6858 2.2542,-0.6297 -8.3796,-20.0421 2.9221,-26.2616 8.0583,-4.0198 14.8868,18.4855 16.9559,21.0076 0.927,1.1283 5.8443,1.4038 5.2623,-1.167 -0.6309,-2.7924 -8.5849,-24.3877 1.1693,-28.0112 15.8422,-6.2615 13.0344,27.6317 13.4465,28.5955 0.8765,2.052 55.1745,3.6336 58.4668,28.0112 1.9043,13.4163 -43.501,30.7567 -47.9422,33.8463 -4.4396,3.0896 -4.0695,8.0313 -2.3385,11.0889 1.9902,3.3164 15.2181,14.5094 13.4483,19.8407 -1.2162,3.0795 -25.9041,-8.2076 -27.4804,-5.8351 -3.5951,4.5321 17.972,15.8763 10.5245,23.926 -2.9524,1.9277 -36.9215,-14.1954 -36.8357,-14.0056 -0.9117,0.3459 -47.9994,8.5854 -84.1926,-2.3357 -1.275,-0.3593 -23.2292,21.1672 -25.7257,20.4267 -3.4133,-1.2494 5.0319,-18.7223 4.0931,-22.1763 -1.5343,-1.9244 -15.563,7.813 -16.3706,2.9183 -0.9656,-6.4327 12.3112,-13.8276 11.6937,-18.0909 -3.4234,-24.2198 1.5293,-38.3632 9.9392,-50.1859 2.8043,-4.3522 -32.9598,-31.309 -58.8521,-41.948 -25.8907,-10.639 -39.7428,-19.6559 -38.2034,-20.4971 z"
       inkscape:transform-center-x="22.168774"
       inkscape:transform-center-y="0.00030899266" />
  </g>
</svg>
