<?xml version="1.0" encoding="UTF-8" standalone="no"?>
<!-- Created with Inkscape (http://www.inkscape.org/) -->

<svg
   xmlns:dc="http://purl.org/dc/elements/1.1/"
   xmlns:cc="http://creativecommons.org/ns#"
   xmlns:rdf="http://www.w3.org/1999/02/22-rdf-syntax-ns#"
   xmlns:svg="http://www.w3.org/2000/svg"
   xmlns="http://www.w3.org/2000/svg"
   xmlns:xlink="http://www.w3.org/1999/xlink"
   xmlns:sodipodi="http://sodipodi.sourceforge.net/DTD/sodipodi-0.dtd"
   xmlns:inkscape="http://www.inkscape.org/namespaces/inkscape"
   width="2560"
   height="1440"
   viewBox="0 0 2560 1440"
   version="1.1"
   id="svg8"
   sodipodi:docname="xfce-4.18_Neon-light-blue.svg"
   inkscape:version="0.92.5 (2060ec1f9f, 2020-04-08)"
   inkscape:export-filename="/home/knome/WIP/Xfce Wallpaper/Exports/xfce-4.14-final.png"
   inkscape:export-xdpi="144"
   inkscape:export-ydpi="144">
  <defs
     id="defs2">
    <linearGradient
       id="linearGradient917"
       inkscape:collect="always">
      <stop
         id="stop913"
         offset="0"
         style="stop-color:#003250;stop-opacity:1" />
      <stop
         id="stop915"
         offset="1"
         style="stop-color:#0046f0;stop-opacity:1" />
    </linearGradient>
    <linearGradient
       id="linearGradient2661"
       inkscape:collect="always">
      <stop
         id="stop2657"
         offset="0"
         style="stop-color:#fcfdff;stop-opacity:0.82745099" />
      <stop
         id="stop2659"
         offset="1"
         style="stop-color:#ffffff;stop-opacity:0" />
    </linearGradient>
    <linearGradient
       inkscape:collect="always"
       id="linearGradient2649">
      <stop
         style="stop-color:#98eeff;stop-opacity:0.82822084"
         offset="0"
         id="stop2645" />
      <stop
         style="stop-color:#98eeff;stop-opacity:0;"
         offset="1"
         id="stop2647" />
    </linearGradient>
    <inkscape:path-effect
       end_linecap_type="zerowidth"
       miter_limit="4"
       linejoin_type="extrp_arc"
       start_linecap_type="zerowidth"
       interpolator_beta="0.2"
       interpolator_type="CubicBezierFit"
       sort_points="true"
       offset_points="0.50613159,2.5992589"
       is_visible="true"
       id="path-effect836"
       effect="powerstroke" />
    <inkscape:path-effect
       end_linecap_type="zerowidth"
       miter_limit="4"
       linejoin_type="extrp_arc"
       start_linecap_type="zerowidth"
       interpolator_beta="0.2"
       interpolator_type="CubicBezierFit"
       sort_points="true"
       offset_points="0.50613159,2.5992589"
       is_visible="true"
       id="path-effect828"
       effect="powerstroke" />
    <inkscape:path-effect
       effect="powerstroke"
       id="path-effect957"
       is_visible="true"
       offset_points="0.2,2 | 2.2053736,0.43805794 | 0.74316954,1.2933704 | 2.8,2"
       sort_points="true"
       interpolator_type="CubicBezierFit"
       interpolator_beta="0.2"
       start_linecap_type="butt"
       linejoin_type="extrp_arc"
       miter_limit="4"
       end_linecap_type="butt" />
    <inkscape:path-effect
       effect="powerstroke"
       id="path-effect929"
       is_visible="true"
       offset_points="0.50613159,2.5992589"
       sort_points="true"
       interpolator_type="CubicBezierFit"
       interpolator_beta="0.2"
       start_linecap_type="zerowidth"
       linejoin_type="extrp_arc"
       miter_limit="4"
       end_linecap_type="zerowidth" />
    <linearGradient
       inkscape:collect="always"
       xlink:href="#linearGradient2649"
       id="linearGradient2651"
       x1="581.84784"
       y1="970.12173"
       x2="1963.7365"
       y2="970.12173"
       gradientUnits="userSpaceOnUse"
       gradientTransform="matrix(0.64766079,0,0,0.73511102,-376.84002,-29.78685)" />
    <linearGradient
       inkscape:collect="always"
       xlink:href="#linearGradient2661"
       id="linearGradient2655"
       gradientUnits="userSpaceOnUse"
       gradientTransform="matrix(1.0336257,0,0,1.1063982,-3161.4127,-694.21912)"
       x1="581.84784"
       y1="970.12173"
       x2="1963.7365"
       y2="970.12173" />
    <linearGradient
       inkscape:collect="always"
       xlink:href="#linearGradient917"
       id="linearGradient997"
       gradientUnits="userSpaceOnUse"
       x1="924.22961"
       y1="1356"
       x2="1978.006"
       y2="348.62839" />
  </defs>
  <sodipodi:namedview
     id="base"
     pagecolor="#ffffff"
     bordercolor="#666666"
     borderopacity="1.0"
     inkscape:pageopacity="0.0"
     inkscape:pageshadow="2"
     inkscape:zoom="0.70710678"
     inkscape:cx="1092.6935"
     inkscape:cy="527.20931"
     inkscape:document-units="px"
     inkscape:current-layer="layer2"
     showgrid="false"
     units="px"
     inkscape:window-width="1920"
     inkscape:window-height="1017"
     inkscape:window-x="0"
     inkscape:window-y="33"
     inkscape:window-maximized="1"
     inkscape:snap-page="true"
     showguides="false"
     inkscape:lockguides="true"
     inkscape:snap-global="true"
     inkscape:snap-center="true" />
  <metadata
     id="metadata5">
    <rdf:RDF>
      <cc:Work
         rdf:about="">
        <dc:format>image/svg+xml</dc:format>
        <dc:type
           rdf:resource="http://purl.org/dc/dcmitype/StillImage" />
        <dc:title />
      </cc:Work>
    </rdf:RDF>
  </metadata>
  <g
     inkscape:label="BG"
     inkscape:groupmode="layer"
     id="layer1"
     transform="translate(0,84.000016)">
    <rect
       y="-84.000015"
       x="0"
       height="1440"
       width="2560"
       id="rect838"
       style="opacity:1;fill:url(#linearGradient997);fill-opacity:1;fill-rule:nonzero;stroke:none;stroke-width:3;stroke-linecap:round;stroke-linejoin:round;stroke-miterlimit:4;stroke-dasharray:none;stroke-opacity:1" />
  </g>
  <g
     inkscape:groupmode="layer"
     id="layer2"
     inkscape:label="Elements">
    <g
       id="g848"
       style="stroke:#00ffff;stroke-width:3;stroke-miterlimit:4;stroke-dasharray:none;stroke-opacity:1">
      <path
         sodipodi:nodetypes="cccccccccccccccccccccccccccccccccccccccccccccccccccccccccccccccsccccccccccccccccccccccc"
         inkscape:connector-curvature="0"
         d="m 2083.4688,1289.1178 c 1.4806,-6.4762 9.1276,-18.7841 8.4403,-21.3128 -1.5343,-1.9244 -15.563,7.813 -16.3706,2.9183 -0.9656,-6.4327 12.3112,-13.8276 11.6937,-18.0909 -3.4234,-24.2198 1.5293,-38.3632 9.9392,-50.1859 2.8043,-4.3522 -32.9598,-31.309 -58.8521,-41.948 -25.8907,-10.639 -39.7428,-19.6559 -38.2034,-20.4971 v 0 c 0.9051,-0.1512 23.4731,11.7387 38.6425,15.8476 27.0497,6.8995 51.7409,27.6654 63.6751,39.5938 0.885,1.021 10.2503,-6.9986 20.0514,-6.4209 13.3878,0.8093 54.8128,12.4356 60.3475,4.5185 3.3563,-4.6478 3.1157,-10.3502 7.303,-12.6858 2.2542,-0.6297 -8.3796,-20.0421 2.9221,-26.2616 8.0583,-4.0198 14.8868,18.4855 16.9559,21.0076 0.927,1.1283 5.8443,1.4038 5.2623,-1.167 -0.6309,-2.7924 -8.5849,-24.3877 1.1693,-28.0112 15.8422,-6.2615 13.0344,27.6317 13.4465,28.5955 0.8765,2.052 55.1745,3.6336 58.4668,28.0112 1.9043,13.4163 -43.501,30.7567 -47.9422,33.8463 -4.4396,3.0896 -4.0695,8.0313 -2.3385,11.0889 1.9902,3.3164 15.2181,14.5094 13.4483,19.8407 -1.2162,3.0795 -25.9041,-8.2076 -27.4804,-5.8351 -3.5951,4.5321 15.4971,12.8711 10.1709,20.9208 -7.637,0.6461 -35.3305,-10.6157 -36.4821,-11.0004 -0.9117,0.3459 -47.9994,8.5854 -84.1926,-2.3357 -0.9118,-0.2569 -12.9142,12.7843 -20.7488,19.5632 m 0,0 H 2560 m -1840.07612,0 H 2083.4688 m -1363.54492,0 -8e-5,-36.2037 -37.96094,-0.064 -0.31641,-21.6797 32.15821,-0.5351 0.37695,-30.2793 -32.45898,0.455 -0.53125,-22.914 37.55859,-0.037 0.89456,-30.651 v 0 l -77.37305,0.2793 -1.09182,141.6295 m -23.08007,0 h 23.08007 m -23.08007,0 c -0.31424,-11.4166 0.47239,-23.3125 0.15822,-34.7291 -18.8329,-1.5888 -61.16643,10.0964 -65.60156,-24.3575 1.68594,-35.168 36.5464,-37.0088 60.66016,-45.1093 -2.52084,-11.9395 -5.03978,-23.8789 -7.56055,-35.8184 v 0 c -36.91499,8.0459 -104.11422,27.5047 -95.80469,94.2988 1.12531,11.7447 16.08435,40.0084 64.04296,45.7155 m -124.36329,0 h 124.36329 m -124.36329,0 -0.47268,-52.2174 35.27344,-0.7442 -0.11523,-29.4179 -35.84571,-0.3789 0.11328,-23.961 37.33008,-1.9082 c 0,0 0.30664,-30.6496 0.30664,-30.9629 0,-0.039 -1.21716,-0.062 -3.34765,-0.07 l 4e-5,-3e-4 v 0 c -14.91345,-0.057 -74.56836,0.5625 -74.56836,0.5625 -0.63021,0 -1.1719,139.0983 -1.1719,139.0983 m -124.46678,0 h 124.46678 m -124.46678,0 39.3743,-47.6351 37.95969,43.8962 28.41797,-28.1543 -43.51563,-45.0566 41.07032,-43.666 -26.92383,-26.7012 -37.52735,44.1621 L 284.00781,1140 v 0 l -30.12695,29.6895 41.00391,45.7656 -44.88477,43.5801 24.3574,30.0826 m -274.3574,0 h 274.3574"
         style="opacity:0.75;fill:none;fill-opacity:1;fill-rule:evenodd;stroke:#00ffff;stroke-width:3;stroke-linecap:round;stroke-linejoin:miter;stroke-miterlimit:4;stroke-dasharray:none;stroke-opacity:1"
         id="path1219" />
      <path
         inkscape:connector-curvature="0"
         id="path1215"
         d="m 2232.7991,1220.9814 c -0.2842,-0.9907 17.6692,-11.8295 20.2685,-9.3376 4.6784,1.6926 -20.1036,10.5953 -20.2685,9.3376 v 0"
         style="opacity:0.75;fill:none;fill-opacity:1;fill-rule:evenodd;stroke:#00ffff;stroke-width:3;stroke-linecap:butt;stroke-linejoin:miter;stroke-miterlimit:4;stroke-dasharray:none;stroke-opacity:1" />
      <path
         inkscape:connector-curvature="0"
         id="path1213"
         d="m 2241.3738,1230.8379 c -1.5813,-0.9537 10.7483,-15.3036 13.773,-13.747 4.4161,4.3791 -13.9799,14.0879 -13.773,13.747 v 0"
         style="opacity:0.75;fill:none;fill-opacity:1;fill-rule:evenodd;stroke:#00ffff;stroke-width:3;stroke-linecap:butt;stroke-linejoin:miter;stroke-miterlimit:4;stroke-dasharray:none;stroke-opacity:1" />
      <path
         inkscape:connector-curvature="0"
         id="path1211"
         d="m 2289.9672,1164.4401 c -1.4989,-1.2375 -13.2532,17.2732 -10.654,19.1941 1.5628,1.167 11.3235,-18.5342 10.654,-19.1941 v 0"
         style="opacity:0.75;fill:none;fill-opacity:1;fill-rule:evenodd;stroke:#00ffff;stroke-width:3;stroke-linecap:butt;stroke-linejoin:miter;stroke-miterlimit:4;stroke-dasharray:none;stroke-opacity:1" />
      <path
         inkscape:connector-curvature="0"
         id="path1209"
         d="m 2241.4931,1190.9342 c -1e-4,2.9427 -2.0992,5.3281 -4.6887,5.3281 -2.5894,-1e-4 -4.6884,-2.3855 -4.6885,-5.3281 0,-2.9427 2.0991,-5.3282 4.6885,-5.3283 2.5895,0 4.6887,2.3856 4.6887,5.3283 v 0"
         style="opacity:0.75;fill:none;fill-opacity:1;fill-rule:evenodd;stroke:#00ffff;stroke-width:3;stroke-linecap:butt;stroke-linejoin:miter;stroke-miterlimit:4;stroke-dasharray:none;stroke-opacity:1" />
      <path
         inkscape:connector-curvature="0"
         id="path1207"
         d="m 2276.4548,1161.8465 c -0.7419,-0.8598 -4.6785,19.0883 -2.8582,19.9715 1.5627,1.167 4.2848,-18.9338 2.8582,-19.9715 v 0"
         style="opacity:0.75;fill:none;fill-opacity:1;fill-rule:evenodd;stroke:#00ffff;stroke-width:3;stroke-linecap:butt;stroke-linejoin:miter;stroke-miterlimit:4;stroke-dasharray:none;stroke-opacity:1" />
      <path
         inkscape:connector-curvature="0"
         id="path1205"
         d="m 2226.2803,1188.8428 c -4.6616,3.2895 2.5588,21.9043 14.4343,11.0353 -9.3301,0.2737 -12.4423,-2.4532 -14.4343,-11.0353 v 0"
         style="opacity:0.75;fill:none;fill-opacity:1;fill-rule:evenodd;stroke:#00ffff;stroke-width:3;stroke-linecap:butt;stroke-linejoin:miter;stroke-miterlimit:4;stroke-dasharray:none;stroke-opacity:1" />
      <path
         inkscape:connector-curvature="0"
         id="path1203"
         d="m 2241.4931,1190.9342 c -1e-4,2.9427 -2.0992,5.3281 -4.6887,5.3281 -2.5894,-1e-4 -4.6884,-2.3855 -4.6885,-5.3281 0,-2.9427 2.0991,-5.3282 4.6885,-5.3283 2.5895,0 4.6887,2.3856 4.6887,5.3283 v 0"
         style="opacity:0.75;fill:none;fill-opacity:1;fill-rule:evenodd;stroke:#00ffff;stroke-width:3;stroke-linecap:butt;stroke-linejoin:miter;stroke-miterlimit:4;stroke-dasharray:none;stroke-opacity:1" />
      <path
         inkscape:connector-curvature="0"
         id="ellipse4274-3"
         d="m 2241.4831,1190.9232 c 0,2.9427 -2.0992,5.3282 -4.6886,5.3282 -2.5895,0 -4.6887,-2.3855 -4.6887,-5.3282 1e-4,-2.9427 2.0992,-5.3281 4.6887,-5.3281 2.5894,0 4.6885,2.3855 4.6886,5.3281 v 0"
         style="opacity:0.75;fill:none;fill-opacity:1;fill-rule:evenodd;stroke:#00ffff;stroke-width:3;stroke-linecap:butt;stroke-linejoin:miter;stroke-miterlimit:4;stroke-dasharray:none;stroke-opacity:1" />
    </g>
  </g>
</svg>
